# xmcd
#
# Track frame offsets:
#	182
#	15825
#	36925
#	63612
#	79475
#	116275
#	139762
#	163585
#	185850
#	211975
#	236920
#	247997
#
# Disc length: 3605 seconds
#
# Revision: 1
# Processed by: cddbd v1.4PL0 Copyright (c) Steve Scherf et al.
# Submitted via: CDmax 1.8
#
DISCID=a50e130c
DTITLE=East Blues Experience and Carey Bell - Good Understanding
DYEAR=1994
DGENRE=Blues
TTITLE0=Tribute to S.R.V.
TTITLE1=Lay Down Dirty Shame
TTITLE2=It's So Easy To Love You
TTITLE3=I Love You Baby
TTITLE4=Nineteen Years Old
TTITLE5=Blues For A.C.
TTITLE6=Quit It
TTITLE7=Leaving In The Morning
TTITLE8=The Sky Is Crying
TTITLE9=Hey, Hey Honey
TTITLE10=Good Understanding
TTITLE11=Carey's New Friend
EXTD=
EXTT0=
EXTT1=
EXTT2=
EXTT3=
EXTT4=
EXTT5=
EXTT6=
EXTT7=
EXTT8=
EXTT9=
EXTT10=
EXTT11=
PLAYORDER=
